# xmcd
#
# Track frame offsets: 
#        150
#        23025
#        45347
#        56500
#        71242
#        84874
#        94894
#        109614
#        132294
#        144914
#        155177
#        168054
#        185352
#        197823
#        225358
#        235843
#
# Disc length: 3692 seconds
#
# Revision: 3
# Processed by: cddbd v1.5.2PL0 Copyright (c) Steve Scherf et al.
# Submitted via: ExactAudioCopyFreeDBPlugin 1.0
#
DISCID=c70e6a10
DTITLE=Various Artist - Giants Of Blues CD2
DYEAR=2002
DGENRE=Blues
TTITLE0=BB King - The Thrill Is Gone (1972)
TTITLE1=Howlin' Wolf - Wang Dang Doodle
TTITLE2=Eric Clapton - Snake Drive (1965)
TTITLE3=Brownie McGee and Sonny Terry - Walk On (1961)
TTITLE4=Ike Turner - Way Down In The Congo (1953)
TTITLE5=John Mayall and The Bluesbreakers - I'm Your Witchdoctor (1965)
TTITLE6=Robert Gray - Nice As Fool Can Be (1979)
TTITLE7=Luther Allison - Sweet Home Chicago (1976)
TTITLE8=Ray Charles - Rockin' Chair Blues (1949)
TTITLE9=Jimmy Witherspoon - Kansas City (1959)
TTITLE10=Rufus Thomas - Bear Cat (1953)
TTITLE11=Savoy Brown Blue - Cold Blooded Woman (1966)
TTITLE12=Elimore James - The Sky Is Crying
TTITLE13=John Mayall and The Bluesbreakers - Life In The Jungle (1988)
TTITLE14=Eric Clapton - West Coast Idea (1965)
TTITLE15=Albert King - I Got The Blues (1978)
EXTD=
EXTT0=
EXTT1=
EXTT2=
EXTT3=
EXTT4=
EXTT5=
EXTT6=
EXTT7=
EXTT8=
EXTT9=
EXTT10=
EXTT11=
EXTT12=
EXTT13=
EXTT14=
EXTT15=
PLAYORDER=
